<svg width="303" height="215" viewBox="0 0 303 215" fill="none" xmlns="http://www.w3.org/2000/svg">
<g filter="url(#filter0_d_20_2258)">
<rect x="119.145" y="-62.7238" width="179" height="179" rx="31.5" transform="rotate(30 119.145 -62.7238)" stroke="#D9D9D9"/>
<path fill-rule="evenodd" clip-rule="evenodd" d="M145.129 -2.0974C138.927 -5.67789 131.204 -2.89925 128.011 3.10594C124.943 8.87519 120.458 16.0518 115.166 20.9604C109.857 25.882 104.538 27.8722 99.1478 25.4096L95.972 30.9102C100.799 34.3483 101.736 39.9477 100.128 47.0068C98.5231 54.0446 94.5503 61.517 91.088 67.0585C87.4844 72.8255 88.9389 80.9038 95.1415 84.4849L158.687 121.173C164.889 124.754 172.611 121.974 175.804 115.969C178.872 110.2 183.357 103.023 188.649 98.1147C193.959 93.1923 199.269 91.1981 204.66 93.6612L207.836 88.1606C203.008 84.7226 202.079 79.1275 203.687 72.0683C205.291 65.0313 209.265 57.5581 212.727 52.0165C216.331 46.2495 214.877 38.1717 208.675 34.5912L145.128 -2.09789L145.129 -2.0974ZM165.47 80.7089C160.79 88.8144 151.906 90.2396 141.872 84.4468L124.793 74.5858C124.304 74.3037 123.948 73.8391 123.802 73.2941C123.656 72.7492 123.732 72.1686 124.014 71.68L148.476 29.3102C148.758 28.8216 149.223 28.4651 149.768 28.3191C150.313 28.1731 150.894 28.2495 151.382 28.5316L168.365 38.3364C176.731 43.1667 179.605 50.8685 175.588 57.8262C172.769 62.7097 166.551 64.9491 161.403 62.9982L161.256 63.253C167.256 67.654 169.008 74.581 165.47 80.7089ZM163.228 43.157L153.489 37.5344L145.547 51.2902L153.75 56.0258C160.091 59.6867 165.061 59.152 167.696 54.5881C170.165 50.3107 168.522 46.2137 163.228 43.157ZM142.396 56.7482L133.644 71.9074L143.741 77.7369C150.343 81.5485 155.369 80.9184 158.244 75.94C161.118 70.9615 158.998 66.3318 152.069 62.3317L142.397 56.7473L142.396 56.7482Z" fill="#7952B3"/>
</g>
<defs>
<filter id="filter0_d_20_2258" x="-11.0385" y="-99.4069" width="325.885" height="325.885" filterUnits="userSpaceOnUse" color-interpolation-filters="sRGB">
<feFlood flood-opacity="0" result="BackgroundImageFix"/>
<feColorMatrix in="SourceAlpha" type="matrix" values="0 0 0 0 0 0 0 0 0 0 0 0 0 0 0 0 0 0 127 0" result="hardAlpha"/>
<feOffset dy="4"/>
<feGaussianBlur stdDeviation="20"/>
<feComposite in2="hardAlpha" operator="out"/>
<feColorMatrix type="matrix" values="0 0 0 0 0.0367917 0 0 0 0 0.0348958 0 0 0 0 0.0484375 0 0 0 0.1 0"/>
<feBlend mode="normal" in2="BackgroundImageFix" result="effect1_dropShadow_20_2258"/>
<feBlend mode="normal" in="SourceGraphic" in2="effect1_dropShadow_20_2258" result="shape"/>
</filter>
</defs>
</svg>
