<svg width="303" height="184" viewBox="0 0 303 184" fill="none" xmlns="http://www.w3.org/2000/svg">
<g filter="url(#filter0_d_23_1206)">
<rect x="118.683" y="25.2476" width="179" height="179" rx="31.5" transform="rotate(30 118.683 25.2476)" stroke="#2F3336"/>
<path d="M151.476 89.7916L155.367 92.0377L153.14 95.8942L156.726 97.9645L158.953 94.108L162.843 96.3541L156.105 108.025L152.214 105.779L154.46 101.889L150.908 99.8379L148.662 103.728L144.738 101.463L151.476 89.7916ZM165.739 103.213L162.305 101.231L164.551 97.3404L175.326 103.561L173.08 107.451L169.629 105.459L165.137 113.24L161.247 110.994L165.739 103.213ZM177.034 104.547L181.111 106.901L181.241 112.457L186.117 109.792L190.194 112.145L183.455 123.816L179.565 121.57L182.905 115.785L177.76 118.408L177.458 112.641L174.119 118.426L170.296 116.219L177.034 104.547ZM192.122 113.258L196.012 115.504L191.501 123.319L197.015 126.503L194.788 130.359L185.384 124.929" fill="black"/>
<path d="M105.345 169.381L135.935 103.507L197.301 138.937L155.567 198.332L126.391 190.779" fill="#E44D26"/>
<path d="M129.518 185.48L163.649 126.364L188.733 140.846L153.087 191.532" fill="#F16529"/>
<path d="M139.943 122.893L159.225 134.026L154.792 141.705L143.933 135.436L140.102 143.711L150.251 149.571L145.827 157.233L128.642 147.311L139.943 122.893ZM126.753 151.363L134.467 155.816L131.463 162.268L138.727 169.53L134.098 177.547L120.873 164.048" fill="#EBEBEB"/>
<path d="M178.44 145.12L159.192 134.007L154.758 141.686L173.296 152.389L178.44 145.12ZM168.062 159.854L150.217 149.551L145.783 157.23L155.255 162.699L148.597 172.161L138.693 169.51L134.084 177.494L152.334 182.212" fill="white"/>
</g>
<defs>
<filter id="filter0_d_23_1206" x="-11.5001" y="-11.4354" width="325.885" height="325.885" filterUnits="userSpaceOnUse" color-interpolation-filters="sRGB">
<feFlood flood-opacity="0" result="BackgroundImageFix"/>
<feColorMatrix in="SourceAlpha" type="matrix" values="0 0 0 0 0 0 0 0 0 0 0 0 0 0 0 0 0 0 127 0" result="hardAlpha"/>
<feOffset dy="4"/>
<feGaussianBlur stdDeviation="20"/>
<feComposite in2="hardAlpha" operator="out"/>
<feColorMatrix type="matrix" values="0 0 0 0 0.0367917 0 0 0 0 0.0348958 0 0 0 0 0.0484375 0 0 0 0.1 0"/>
<feBlend mode="normal" in2="BackgroundImageFix" result="effect1_dropShadow_23_1206"/>
<feBlend mode="normal" in="SourceGraphic" in2="effect1_dropShadow_23_1206" result="shape"/>
</filter>
</defs>
</svg>
