<svg width="303" height="184" viewBox="0 0 303 184" fill="none" xmlns="http://www.w3.org/2000/svg">
<g filter="url(#filter0_d_20_2163)">
<rect x="118.683" y="25.6305" width="179" height="179" rx="31.5" transform="rotate(30 118.683 25.6305)" stroke="#D9D9D9"/>
<path d="M151.476 90.1745L155.367 92.4206L153.14 96.2771L156.726 98.3474L158.953 94.4909L162.843 96.737L156.105 108.408L152.214 106.162L154.46 102.272L150.908 100.221L148.662 104.111L144.738 101.846L151.476 90.1745ZM165.739 103.596L162.305 101.614L164.551 97.7233L175.326 103.944L173.08 107.834L169.629 105.842L165.137 113.623L161.247 111.377L165.739 103.596ZM177.034 104.93L181.111 107.284L181.241 112.839L186.117 110.174L190.194 112.528L183.455 124.199L179.565 121.953L182.905 116.168L177.76 118.791L177.458 113.024L174.119 118.808L170.296 116.601L177.034 104.93ZM192.122 113.641L196.012 115.887L191.501 123.702L197.015 126.885L194.788 130.742L185.384 125.312" fill="black"/>
<path d="M105.345 169.764L135.935 103.89L197.301 139.319L155.567 198.714L126.391 191.162" fill="#E44D26"/>
<path d="M129.518 185.863L163.649 126.747L188.733 141.229L153.087 191.915" fill="#F16529"/>
<path d="M139.943 123.276L159.225 134.409L154.792 142.088L143.933 135.819L140.102 144.094L150.251 149.953L145.827 157.616L128.642 147.694L139.943 123.276ZM126.753 151.746L134.467 156.199L131.463 162.651L138.727 169.913L134.098 177.93L120.873 164.431" fill="#EBEBEB"/>
<path d="M178.44 145.503L159.192 134.389L154.758 142.069L173.296 152.772L178.44 145.503ZM168.062 160.237L150.217 149.934L145.783 157.613L155.255 163.082L148.597 172.544L138.693 169.893L134.084 177.877L152.334 182.595" fill="white"/>
</g>
<defs>
<filter id="filter0_d_20_2163" x="-11.5001" y="-11.0525" width="325.885" height="325.885" filterUnits="userSpaceOnUse" color-interpolation-filters="sRGB">
<feFlood flood-opacity="0" result="BackgroundImageFix"/>
<feColorMatrix in="SourceAlpha" type="matrix" values="0 0 0 0 0 0 0 0 0 0 0 0 0 0 0 0 0 0 127 0" result="hardAlpha"/>
<feOffset dy="4"/>
<feGaussianBlur stdDeviation="20"/>
<feComposite in2="hardAlpha" operator="out"/>
<feColorMatrix type="matrix" values="0 0 0 0 0.0367917 0 0 0 0 0.0348958 0 0 0 0 0.0484375 0 0 0 0.1 0"/>
<feBlend mode="normal" in2="BackgroundImageFix" result="effect1_dropShadow_20_2163"/>
<feBlend mode="normal" in="SourceGraphic" in2="effect1_dropShadow_20_2163" result="shape"/>
</filter>
</defs>
</svg>
