<svg width="303" height="303" viewBox="0 0 303 303" fill="none" xmlns="http://www.w3.org/2000/svg">
<g filter="url(#filter0_d_20_2155)">
<rect x="118.683" y="24.9575" width="179" height="179" rx="31.5" transform="rotate(30 118.683 24.9575)" stroke="#D9D9D9"/>
<path d="M176.442 103.916C152.498 90.0915 121.965 98.2729 108.141 122.217C94.3171 146.16 102.498 176.694 126.442 190.518C150.386 204.342 180.92 196.16 194.743 172.217L219.743 128.916L176.442 103.916Z" fill="#F0047F"/>
<path d="M147.728 148.212L129.503 179.779C113.257 169.119 107.449 147.946 115.901 130.514L116.162 129.987L147.728 148.212ZM178.5 165.978C167.92 182.271 147.861 188.721 131.824 181.074L131.339 180.838L149.564 149.272L178.5 165.978ZM196.326 135.19L179.598 164.164L150.624 147.436L167.352 118.462L196.326 135.19Z" fill="white"/>
</g>
<defs>
<filter id="filter0_d_20_2155" x="-11.5001" y="-11.7255" width="325.885" height="325.885" filterUnits="userSpaceOnUse" color-interpolation-filters="sRGB">
<feFlood flood-opacity="0" result="BackgroundImageFix"/>
<feColorMatrix in="SourceAlpha" type="matrix" values="0 0 0 0 0 0 0 0 0 0 0 0 0 0 0 0 0 0 127 0" result="hardAlpha"/>
<feOffset dy="4"/>
<feGaussianBlur stdDeviation="20"/>
<feComposite in2="hardAlpha" operator="out"/>
<feColorMatrix type="matrix" values="0 0 0 0 0.0367917 0 0 0 0 0.0348958 0 0 0 0 0.0484375 0 0 0 0.1 0"/>
<feBlend mode="normal" in2="BackgroundImageFix" result="effect1_dropShadow_20_2155"/>
<feBlend mode="normal" in="SourceGraphic" in2="effect1_dropShadow_20_2155" result="shape"/>
</filter>
</defs>
</svg>
