<svg width="303" height="303" viewBox="0 0 303 303" fill="none" xmlns="http://www.w3.org/2000/svg">
<g filter="url(#filter0_d_23_1191)">
<rect x="118.645" y="25.4027" width="179" height="179" rx="31.5" transform="rotate(30 118.645 25.4027)" stroke="#2F3336"/>
<path d="M135.717 122.023L152.051 131.454L151.306 132.746L136.469 124.18L130.855 133.904L144.807 141.959L144.061 143.251L130.109 135.196L123.945 145.872L138.952 154.536L138.206 155.828L121.702 146.3L135.717 122.023ZM153.515 132.299L155.25 133.301L156.777 148.417L170.802 142.279L189.323 134.891L157.116 150.109L158.964 167.813L157.16 166.771L155.481 150.661L140.656 157.243L138.886 156.221L155.21 149.008L153.515 132.299ZM172.88 145.202L173.626 143.91L192.24 154.657L191.494 155.949L182.919 150.998L169.649 173.982L168.151 173.117L181.421 150.133L172.88 145.202Z" fill="white"/>
<path d="M115.283 110.225L117.155 111.306L120.773 164.641L118.282 144.325L115.788 112.965L102.764 135.366L101.267 134.502L115.283 110.225Z" fill="white"/>
<path d="M179.044 177.164C179.354 177.343 179.716 177.237 179.892 176.932C180.068 176.627 179.978 176.261 179.669 176.082C179.363 175.906 178.997 176.009 178.821 176.314C178.645 176.619 178.738 176.987 179.044 177.164ZM181.337 176.591C180.817 177.491 181.13 178.455 182.08 179.004C183.093 179.588 184.054 179.335 184.662 178.283L186.801 174.578L185.985 174.107L183.848 177.808C183.511 178.393 183.036 178.534 182.515 178.234C182.049 177.965 181.9 177.491 182.138 177.053L181.337 176.591ZM185.658 179.022C185.175 179.992 185.613 181.043 186.778 181.716C188.024 182.435 189.165 182.257 189.744 181.256C190.198 180.468 190.005 179.776 189.072 178.903L188.575 178.428C187.982 177.873 187.829 177.499 188.045 177.125C188.317 176.653 188.925 176.593 189.57 176.965C190.181 177.318 190.43 177.863 190.228 178.39L191.022 178.848C191.483 177.939 191.062 176.869 189.995 176.253C188.848 175.59 187.725 175.769 187.187 176.702C186.743 177.471 186.912 178.179 187.735 178.949L188.318 179.503C188.919 180.068 189.087 180.484 188.856 180.884C188.588 181.348 187.912 181.408 187.257 181.03C186.554 180.624 186.248 180.026 186.466 179.489L185.658 179.022Z" fill="white"/>
</g>
<defs>
<filter id="filter0_d_23_1191" x="-11.5385" y="-11.2803" width="325.885" height="325.885" filterUnits="userSpaceOnUse" color-interpolation-filters="sRGB">
<feFlood flood-opacity="0" result="BackgroundImageFix"/>
<feColorMatrix in="SourceAlpha" type="matrix" values="0 0 0 0 0 0 0 0 0 0 0 0 0 0 0 0 0 0 127 0" result="hardAlpha"/>
<feOffset dy="4"/>
<feGaussianBlur stdDeviation="20"/>
<feComposite in2="hardAlpha" operator="out"/>
<feColorMatrix type="matrix" values="0 0 0 0 0.0367917 0 0 0 0 0.0348958 0 0 0 0 0.0484375 0 0 0 0.1 0"/>
<feBlend mode="normal" in2="BackgroundImageFix" result="effect1_dropShadow_23_1191"/>
<feBlend mode="normal" in="SourceGraphic" in2="effect1_dropShadow_23_1191" result="shape"/>
</filter>
</defs>
</svg>
