<svg width="303" height="177" viewBox="0 0 303 177" fill="none" xmlns="http://www.w3.org/2000/svg">
<g filter="url(#filter0_d_23_1238)">
<rect x="119.084" y="25.0186" width="179" height="179" rx="31.5" transform="rotate(30 119.084 25.0186)" stroke="#2F3336"/>
<path d="M172.764 102.853C175.621 102.864 178.421 104.473 179.854 106.947C187.126 119.278 194.408 131.601 201.676 143.934C203.046 146.25 203.1 149.292 201.729 151.619L180.543 188.314C179.152 190.758 176.325 192.21 173.538 192.091C159.278 191.945 145.019 191.81 130.761 191.665C127.845 191.653 125.048 189.909 123.707 187.327C121.562 183.595 119.405 179.869 117.258 176.139C116.825 175.366 116.263 174.624 116.167 173.716C116.898 173.399 117.674 173.755 118.411 173.858C120.005 174.207 121.638 174.234 123.26 174.281C123.696 174.247 124.031 174.55 124.22 174.914C126.065 178.088 127.859 181.294 129.722 184.458C130.116 185.139 130.975 185.032 131.642 185.042C145.644 185.171 159.646 185.329 173.647 185.455C174.147 185.492 174.603 185.202 174.818 184.755C181.814 172.655 188.799 160.545 195.789 148.441C196.115 147.981 196.091 147.372 195.767 146.919C188.532 134.691 181.307 122.458 174.075 110.23C173.963 109.995 173.782 109.8 173.557 109.669C173.332 109.539 173.073 109.479 172.813 109.499C158.606 109.351 144.398 109.218 130.193 109.067C129.64 109.014 129.093 109.283 128.863 109.801C121.876 121.907 114.885 134.013 107.895 146.119C107.756 146.318 107.68 146.554 107.68 146.796C107.679 147.038 107.752 147.275 107.89 147.475C109.814 150.748 111.748 154.013 113.677 157.282C114.788 159.081 116.47 160.739 118.631 161.1C120.523 161.443 122.546 160.478 123.477 158.796C130.44 146.77 137.367 134.721 144.332 122.7C144.601 122.143 145.363 121.994 145.853 122.345C147.233 123.129 148.614 123.914 149.976 124.73C150.557 125.048 150.62 125.851 150.238 126.349C143.241 138.456 136.269 150.578 129.253 162.674C127.393 165.904 124.04 168.65 120.143 168.506C115.365 168.287 111.053 165.259 108.474 161.334C106.235 157.948 104.303 154.362 102.184 150.897C100.679 148.546 100.535 145.367 101.955 142.941L123.141 106.247C124.497 103.847 127.236 102.362 129.98 102.443C144.241 102.583 158.503 102.717 172.764 102.853Z" fill="#8CC84B"/>
<path d="M167.473 133.69C172.338 136.096 177.29 139.119 180.177 143.867C182.423 147.525 182.089 152.289 180.05 155.953C179.676 156.39 179.008 156.365 178.56 156.061C177.2 155.274 175.827 154.508 174.482 153.694C173.891 153.383 173.863 152.657 174.085 152.105C174.697 150.142 174.743 147.874 173.592 146.091C171.807 143.385 168.86 141.768 166.107 140.214C164.048 139.166 161.799 138.098 159.427 138.296C157.614 138.436 156.182 140.005 155.81 141.72C155.647 143.012 156.653 144.039 157.456 144.915C162.256 149.658 168.332 152.97 172.755 158.117C174.593 160.236 175.948 163.075 175.346 165.933C174.514 169.749 171.84 173.339 168.054 174.603C164.966 175.658 161.59 175.253 158.526 174.323C154.472 173.05 150.732 170.918 147.289 168.456C144.084 166.085 141.035 163.122 139.736 159.256C138.607 155.982 139.269 152.28 141.086 149.386C141.401 148.902 142.099 148.841 142.554 149.158C143.931 149.938 145.304 150.726 146.665 151.534C147.235 151.811 147.368 152.519 147.098 153.051C146.395 154.852 146.014 156.949 146.891 158.764C148.639 162.169 152.206 164.064 155.366 165.956C158.077 167.365 161.064 169.042 164.229 168.541C165.942 168.201 167.241 166.729 167.762 165.118C168.128 163.715 167.187 162.419 166.312 161.423C161.75 156.435 155.322 153.578 150.948 148.39C149.162 146.302 147.858 143.55 148.327 140.747C149.007 136.789 151.888 133.072 155.864 132.035C159.769 130.975 163.886 132.075 167.473 133.689L167.473 133.69Z" fill="#8CC84B"/>
</g>
<defs>
<filter id="filter0_d_23_1238" x="-11.0989" y="-11.6644" width="325.885" height="325.885" filterUnits="userSpaceOnUse" color-interpolation-filters="sRGB">
<feFlood flood-opacity="0" result="BackgroundImageFix"/>
<feColorMatrix in="SourceAlpha" type="matrix" values="0 0 0 0 0 0 0 0 0 0 0 0 0 0 0 0 0 0 127 0" result="hardAlpha"/>
<feOffset dy="4"/>
<feGaussianBlur stdDeviation="20"/>
<feComposite in2="hardAlpha" operator="out"/>
<feColorMatrix type="matrix" values="0 0 0 0 0.0367917 0 0 0 0 0.0348958 0 0 0 0 0.0484375 0 0 0 0.1 0"/>
<feBlend mode="normal" in2="BackgroundImageFix" result="effect1_dropShadow_23_1238"/>
<feBlend mode="normal" in="SourceGraphic" in2="effect1_dropShadow_23_1238" result="shape"/>
</filter>
</defs>
</svg>
