<svg width="303" height="303" viewBox="0 0 303 303" fill="none" xmlns="http://www.w3.org/2000/svg">
<g filter="url(#filter0_d_20_2199)">
<rect x="118.885" y="24.9912" width="179" height="179" rx="31.5" transform="rotate(30 118.885 24.9912)" stroke="#D9D9D9"/>
<path d="M180.108 170.166C177.077 168.438 174.032 167.649 171.212 167.456C171.327 165.392 171.343 163.503 171.803 162.377C172.348 161.067 172.588 160.214 173.618 158.869C174.648 157.523 176.698 155.944 176.774 155.776C176.849 155.609 177.104 154.765 175.374 153.745C173.643 152.724 171.939 152.205 171.5 152.563C171.061 152.921 170.126 153.774 169.284 154.721C168.07 156.13 161.63 159.941 158.103 161.849C158.185 160.356 158.263 159.052 158.618 158.181C159.163 156.872 159.402 156.019 160.433 154.673C161.463 153.327 163.513 151.748 163.589 151.581C163.664 151.414 163.919 150.57 162.188 149.549C160.458 148.529 158.754 148.009 158.315 148.367C157.876 148.726 157.065 149.692 156.099 150.526C155.132 151.36 145.466 158.349 142.952 160.146C141.661 161.067 140.595 161.78 139.855 162.259C139.855 162.259 139.811 162.298 139.718 162.349C139.08 162.761 138.723 162.977 138.723 162.977C138.723 162.977 138.723 162.977 138.714 162.993C138.23 163.283 137.749 163.532 137.622 163.459C137.527 163.404 138.011 162.165 139.206 160.788C141.73 157.879 146.173 153.653 146.258 153.47C146.312 153.375 147.109 152.654 146.108 151.464C145.139 150.293 144.258 150.797 144.147 150.733C144.036 150.669 143.802 150.892 143.802 150.892C143.802 150.892 148.484 145.961 144.482 143.65C141.983 142.207 136.955 142.953 133.821 144.434C132.408 144.398 129.393 144.324 126.165 144.253C124.93 144.236 123.664 144.201 122.479 144.171C122.452 144.071 122.435 143.955 122.408 143.855C120.554 135.888 113.71 127.065 118.099 120.34C119.703 117.891 124.409 111.75 145.248 113.025C162.357 114.15 171.905 122.089 171.412 127.182C170.713 134.455 156.235 140.354 141.578 133.959C135.988 131.512 134.405 127.898 134.147 126.737C133.876 125.526 133.793 125.415 133.433 125.417C132.853 125.399 132.726 126.275 132.647 126.778C132.437 128.091 133.034 130.966 135.358 133.553C137.414 135.836 143.303 139.848 152.415 141.27C162.615 142.856 174.31 137.65 176.734 129.031C179.222 120.302 168.02 110.481 153.588 107.822C145.009 106.243 134.988 105.773 126.44 107.756C116.282 110.117 112.142 114.876 111.273 117.369C108.204 126.227 116.202 137.763 118.381 144.146C118.086 144.144 117.817 144.136 117.588 144.131C114.759 143.953 103.845 143.494 99.0815 146.923C93.6767 150.805 94.2555 156.159 95.7824 157.715C100.525 162.542 107.956 163.078 113.758 160.226C119.559 157.375 122.668 151.113 122.827 147.514C122.829 147.473 122.831 147.432 122.818 147.382C123.579 147.379 124.366 147.369 125.127 147.366C126.633 147.35 128.097 147.372 129.338 147.414C127.951 148.574 126.542 150.102 124.891 152.523C122.937 155.36 121.926 159.923 122.647 162.364C122.975 163.439 123.805 163.939 124.342 164.25C126.209 165.327 127.942 164.261 129.935 162.965C132.371 161.376 134.906 159.36 134.906 159.36C134.906 159.36 129.551 165.675 133.031 167.684C134.297 168.415 136.528 167.51 137.582 167C137.572 167.016 137.572 167.016 137.572 167.016C137.572 167.016 137.631 166.987 137.759 166.912C138.004 166.78 138.156 166.699 138.156 166.699C138.156 166.699 138.165 166.683 138.174 166.667C139.192 166.074 141.491 164.722 145.11 162.362C149.777 159.32 154.986 155.156 154.986 155.156C154.986 155.156 154.418 156.579 153.806 159.136C153.446 160.636 153.424 162.501 153.272 164.227C152.354 164.646 151.81 164.859 151.81 164.859C151.81 164.859 151.81 164.859 151.816 164.884C151.095 165.184 150.314 165.514 149.495 165.8C146.583 166.861 143.166 168.031 142.489 168.547C141.691 169.162 141.432 169.792 141.791 170.632C142.048 171.245 142.844 171.768 143.709 172.204C145.323 172.988 146.634 173.239 147.309 173.312C148.321 173.496 149.566 173.603 150.877 173.453C153.291 173.18 155.351 171.986 156.617 169.575C157.318 168.25 157.64 166.706 157.821 165.187C158.107 165.057 158.377 164.918 158.663 164.788C163.592 162.424 168.14 159.333 168.14 159.333C168.14 159.333 167.571 160.756 166.96 163.313C166.637 164.603 166.591 166.18 166.485 167.679C162.792 168.268 159.871 169.745 158.423 170.976C155.764 173.28 155.79 175.024 157.088 176.174C157.67 176.7 158.802 176.932 159.671 177.033C160.722 177.26 162.049 177.372 163.465 177.22C165.879 176.947 168.513 176.148 169.779 173.736C170.353 172.633 170.68 171.409 170.878 170.152C173.525 170.5 176.56 171.598 179.835 174.037C186.853 179.27 185.627 184.826 184.201 186.639C182.775 188.452 180.572 188.615 179.858 188.645C179.144 188.676 178.906 188.687 178.817 188.951C178.679 189.336 178.941 189.466 179.421 189.658C180.102 189.904 184.298 190.344 186.541 186.788C189.463 182.274 187.965 174.64 180.108 170.166ZM110.717 156.214C106.647 157.492 102.573 156.511 101.573 154.773C100.498 152.908 103.45 149.256 108.181 148.149C111.062 147.471 114.407 147.229 116.58 147.155C117.071 147.144 117.792 147.138 118.669 147.117C118.816 147.118 118.898 147.123 118.898 147.123C119.07 147.117 119.242 147.111 119.414 147.104C118.163 151.866 114.996 154.867 110.717 156.214ZM136.05 154.347C133.956 155.964 129.004 160.34 128.071 159.4C127.268 158.599 129.057 154.148 132.748 150.859C134.607 149.211 137.453 147.606 138.839 147.141C141.076 146.408 142.871 146.769 142.879 147.596C142.872 148.668 137.355 153.329 136.05 154.347ZM146.915 170.195C146.442 170.175 146.021 170.101 145.917 169.914C145.843 169.787 146.258 169.689 146.258 169.689C146.258 169.689 149.309 168.751 150.582 168.263C151.32 167.972 152.192 167.631 153.14 167.23C153.104 167.293 153.058 167.373 153.022 167.436C151.624 169.856 148.343 170.134 146.915 170.195ZM160.019 174.239C159.86 173.894 160.273 173.288 162.316 171.832C163.111 171.257 164.683 170.435 166.812 169.998C166.678 170.596 166.506 171.15 166.225 171.6C164.447 174.644 161.606 174.522 160.019 174.239Z" fill="#CD6799"/>
</g>
<defs>
<filter id="filter0_d_20_2199" x="-11.2976" y="-11.6918" width="325.885" height="325.885" filterUnits="userSpaceOnUse" color-interpolation-filters="sRGB">
<feFlood flood-opacity="0" result="BackgroundImageFix"/>
<feColorMatrix in="SourceAlpha" type="matrix" values="0 0 0 0 0 0 0 0 0 0 0 0 0 0 0 0 0 0 127 0" result="hardAlpha"/>
<feOffset dy="4"/>
<feGaussianBlur stdDeviation="20"/>
<feComposite in2="hardAlpha" operator="out"/>
<feColorMatrix type="matrix" values="0 0 0 0 0.0367917 0 0 0 0 0.0348958 0 0 0 0 0.0484375 0 0 0 0.1 0"/>
<feBlend mode="normal" in2="BackgroundImageFix" result="effect1_dropShadow_20_2199"/>
<feBlend mode="normal" in="SourceGraphic" in2="effect1_dropShadow_20_2199" result="shape"/>
</filter>
</defs>
</svg>
