<svg width="303" height="114" viewBox="0 0 303 114" fill="none" xmlns="http://www.w3.org/2000/svg">
<g filter="url(#filter0_d_20_2261)">
<rect x="118.346" y="24.3752" width="180" height="180" rx="32" transform="rotate(30 118.346 24.3752)" fill="white"/>
<rect x="118.529" y="25.0582" width="179" height="179" rx="31.5" transform="rotate(30 118.529 25.0582)" stroke="white"/>
</g>
<g clip-path="url(#clip0_20_2261)">
<path d="M116.634 111.195C116.634 111.195 115.415 108.485 119.08 107.922L127.93 106.072C127.93 106.072 130.615 105.279 131.496 107.83L161.814 179.705L150.524 199.26C150.524 199.26 148.726 202.315 144.981 199.701L116.634 111.195Z" fill="#2489CA"/>
<path d="M147.552 145.991L184.237 141.249L195.301 121.704C195.301 121.704 196.665 116.831 191.762 116.946L140.078 128.221L147.552 145.991Z" fill="#0877B9"/>
</g>
<defs>
<filter id="filter0_d_20_2261" x="-11.6537" y="-11.6248" width="325.885" height="325.885" filterUnits="userSpaceOnUse" color-interpolation-filters="sRGB">
<feFlood flood-opacity="0" result="BackgroundImageFix"/>
<feColorMatrix in="SourceAlpha" type="matrix" values="0 0 0 0 0 0 0 0 0 0 0 0 0 0 0 0 0 0 127 0" result="hardAlpha"/>
<feOffset dy="4"/>
<feGaussianBlur stdDeviation="20"/>
<feComposite in2="hardAlpha" operator="out"/>
<feColorMatrix type="matrix" values="0 0 0 0 0.0367917 0 0 0 0 0.0348958 0 0 0 0 0.0484375 0 0 0 0.1 0"/>
<feBlend mode="normal" in2="BackgroundImageFix" result="effect1_dropShadow_20_2261"/>
<feBlend mode="normal" in="SourceGraphic" in2="effect1_dropShadow_20_2261" result="shape"/>
</filter>
<clipPath id="clip0_20_2261">
<rect width="101.833" height="100" fill="white" transform="translate(131.987 78.7816) rotate(30)"/>
</clipPath>
</defs>
</svg>
