<svg width="303" height="303" viewBox="0 0 303 303" fill="none" xmlns="http://www.w3.org/2000/svg">
<g filter="url(#filter0_d_23_1185)">
<rect x="119.145" y="25.5662" width="179" height="179" rx="31.5" transform="rotate(30 119.145 25.5662)" stroke="#2F3336"/>
<path d="M112.47 182.793C120.438 187.393 130.637 184.66 135.237 176.693L143.57 162.259L129.137 153.926C121.169 149.326 110.97 152.059 106.37 160.026C101.77 167.994 104.503 178.193 112.47 182.793Z" fill="#0ACF83"/>
<path d="M123.036 131.159C127.636 123.191 137.836 120.458 145.803 125.058L160.237 133.392L143.571 162.259L129.137 153.926C121.169 149.326 118.436 139.126 123.036 131.159Z" fill="#A259FF"/>
<path d="M139.703 102.291C144.303 94.3239 154.503 91.5909 162.47 96.1909L176.904 104.524L160.237 133.392L145.803 125.058C137.836 120.458 135.103 110.259 139.703 102.291Z" fill="#F24E1E"/>
<path d="M176.904 104.524L191.338 112.858C199.305 117.458 202.038 127.657 197.438 135.625C192.838 143.592 182.638 146.325 174.671 141.725L160.237 133.392L176.904 104.524Z" fill="#FF7262"/>
<path d="M180.771 164.492C176.171 172.46 165.972 175.193 158.004 170.593C150.037 165.993 147.304 155.793 151.904 147.825C156.504 139.858 166.703 137.125 174.671 141.725C182.638 146.325 185.371 156.525 180.771 164.492Z" fill="#1ABCFE"/>
</g>
<defs>
<filter id="filter0_d_23_1185" x="-11.0385" y="-11.1168" width="325.885" height="325.885" filterUnits="userSpaceOnUse" color-interpolation-filters="sRGB">
<feFlood flood-opacity="0" result="BackgroundImageFix"/>
<feColorMatrix in="SourceAlpha" type="matrix" values="0 0 0 0 0 0 0 0 0 0 0 0 0 0 0 0 0 0 127 0" result="hardAlpha"/>
<feOffset dy="4"/>
<feGaussianBlur stdDeviation="20"/>
<feComposite in2="hardAlpha" operator="out"/>
<feColorMatrix type="matrix" values="0 0 0 0 0.0367917 0 0 0 0 0.0348958 0 0 0 0 0.0484375 0 0 0 0.1 0"/>
<feBlend mode="normal" in2="BackgroundImageFix" result="effect1_dropShadow_23_1185"/>
<feBlend mode="normal" in="SourceGraphic" in2="effect1_dropShadow_23_1185" result="shape"/>
</filter>
</defs>
</svg>
