<svg width="303" height="303" viewBox="0 0 303 303" fill="none" xmlns="http://www.w3.org/2000/svg">
<g filter="url(#filter0_d_23_1204)">
<rect x="119.183" y="25.4112" width="179" height="179" rx="31.5" transform="rotate(30 119.183 25.4112)" stroke="#2F3336"/>
<path d="M142.792 196.875C162.436 177.626 166.811 164.732 156.877 156.034C154.093 164.814 151.399 173.931 140.085 174.609C134.163 174.974 131.397 171.913 127.164 161.688C119.499 166.864 116.535 174.719 113.732 183.345C103.934 175.154 97.9525 165.668 100.038 152.844C101.448 140.88 110.138 131.084 121.807 128.184C125.976 127.021 130.22 126.224 134.513 125.775C152.091 123.645 159.635 116.079 161.148 98.4984C161.317 97.5252 161.54 96.583 161.858 95.6604C174.294 105.589 184.029 118.527 190.183 133.216C202.806 166.56 179.621 200.041 145.776 197.705C144.834 197.233 143.854 196.952 142.792 196.875Z" fill="#EE4854"/>
</g>
<defs>
<filter id="filter0_d_23_1204" x="-11.0001" y="-11.2719" width="325.885" height="325.885" filterUnits="userSpaceOnUse" color-interpolation-filters="sRGB">
<feFlood flood-opacity="0" result="BackgroundImageFix"/>
<feColorMatrix in="SourceAlpha" type="matrix" values="0 0 0 0 0 0 0 0 0 0 0 0 0 0 0 0 0 0 127 0" result="hardAlpha"/>
<feOffset dy="4"/>
<feGaussianBlur stdDeviation="20"/>
<feComposite in2="hardAlpha" operator="out"/>
<feColorMatrix type="matrix" values="0 0 0 0 0.0367917 0 0 0 0 0.0348958 0 0 0 0 0.0484375 0 0 0 0.1 0"/>
<feBlend mode="normal" in2="BackgroundImageFix" result="effect1_dropShadow_23_1204"/>
<feBlend mode="normal" in="SourceGraphic" in2="effect1_dropShadow_23_1204" result="shape"/>
</filter>
</defs>
</svg>
