<svg width="303" height="165" viewBox="0 0 303 165" fill="none" xmlns="http://www.w3.org/2000/svg">
<g filter="url(#filter0_d_23_1202)">
<rect x="119.145" y="25.2392" width="179" height="179" rx="31.5" transform="rotate(30 119.145 25.2392)" stroke="#2F3336"/>
<path d="M153.034 165.145L134.357 148.444C134.169 148.565 133.974 148.674 133.773 148.772L136.824 188.141L138.663 187.649L153.763 169.092C153.342 168.537 153.058 167.89 152.931 167.205C152.805 166.519 152.84 165.814 153.034 165.145L153.034 165.145ZM161.316 132.907C159.816 133.668 157.976 133.683 156.411 132.78C156.171 132.641 155.951 132.482 155.742 132.312L137.305 141.875L169.613 145.68C169.665 145.571 169.698 145.46 169.76 145.353C169.886 145.136 170.038 144.942 170.193 144.754L161.316 132.908L161.316 132.907ZM163.614 130.552L173.057 143.152C173.637 143.07 174.227 143.103 174.795 143.249L184.254 131.625L180.935 119.241L164.114 127.967C164.177 128.858 164.005 129.749 163.614 130.552L163.614 130.552ZM188.619 147.917L185.294 135.504L177.45 145.141C177.757 145.61 177.976 146.131 178.094 146.679L188.619 147.917ZM155.026 162.564C155.657 162.182 156.372 161.964 157.109 161.929C157.845 161.894 158.578 162.043 159.242 162.362L169.617 149.611C169.507 149.391 169.43 149.159 169.358 148.925L136.864 145.099C136.773 145.409 136.659 145.713 136.515 146.014L155.026 162.564ZM189.524 151.299L178.159 149.96L195.076 172.532L195.204 172.498L189.524 151.299ZM156.586 170.779L144.029 186.209L169.088 179.495L159.025 170.498C158.254 170.819 157.409 170.916 156.586 170.779ZM128.23 148.576C127.655 148.244 127.161 147.828 126.746 147.355L116.701 152.567L115.838 149.352L125.353 144.416C125.318 144.191 125.295 143.965 125.284 143.738L113.978 142.408L113.071 139.023L125.446 140.479L109.686 126.393L108.651 122.526L109.874 122.198L128.047 138.443C128.545 138.129 129.088 137.892 129.656 137.741L128.073 117.321L131.268 116.465L132.921 137.8C133.348 137.93 133.759 138.107 134.146 138.328C134.588 138.584 134.981 138.894 135.331 139.236L153.994 129.555C153.673 128.266 153.866 126.903 154.531 125.753C154.734 125.401 154.975 125.086 155.241 124.803L146.028 112.511L149.413 111.604L158.141 123.251C159.009 123.106 159.899 123.187 160.726 123.485C161.553 123.784 162.29 124.29 162.865 124.955L180.074 116.026L176.905 104.198L108.603 122.499L126.905 190.8L133.626 188.999L130.553 149.333C129.735 149.245 128.943 148.988 128.23 148.576ZM172.023 151.809L161.475 164.77C161.69 165.324 161.792 165.917 161.774 166.512C161.755 167.106 161.617 167.692 161.368 168.232L172.844 178.489L191.691 173.439L175.448 151.767C174.356 152.233 173.125 152.248 172.023 151.809L172.023 151.809Z" fill="#25C7B7"/>
</g>
<defs>
<filter id="filter0_d_23_1202" x="-11.0385" y="-11.4438" width="325.885" height="325.885" filterUnits="userSpaceOnUse" color-interpolation-filters="sRGB">
<feFlood flood-opacity="0" result="BackgroundImageFix"/>
<feColorMatrix in="SourceAlpha" type="matrix" values="0 0 0 0 0 0 0 0 0 0 0 0 0 0 0 0 0 0 127 0" result="hardAlpha"/>
<feOffset dy="4"/>
<feGaussianBlur stdDeviation="20"/>
<feComposite in2="hardAlpha" operator="out"/>
<feColorMatrix type="matrix" values="0 0 0 0 0.0367917 0 0 0 0 0.0348958 0 0 0 0 0.0484375 0 0 0 0.1 0"/>
<feBlend mode="normal" in2="BackgroundImageFix" result="effect1_dropShadow_23_1202"/>
<feBlend mode="normal" in="SourceGraphic" in2="effect1_dropShadow_23_1202" result="shape"/>
</filter>
</defs>
</svg>
