<svg width="303" height="165" viewBox="0 0 303 165" fill="none" xmlns="http://www.w3.org/2000/svg">
<g filter="url(#filter0_d_20_2159)">
<rect x="119.145" y="25.622" width="179" height="179" rx="31.5" transform="rotate(30 119.145 25.622)" stroke="#D9D9D9"/>
<path d="M153.034 165.528L134.357 148.827C134.169 148.948 133.974 149.057 133.773 149.155L136.824 188.524L138.663 188.032L153.763 169.475C153.342 168.919 153.058 168.273 152.931 167.588C152.805 166.902 152.84 166.197 153.034 165.528L153.034 165.528ZM161.316 133.29C159.816 134.051 157.976 134.066 156.411 133.163C156.171 133.024 155.951 132.864 155.742 132.695L137.305 142.258L169.613 146.063C169.665 145.954 169.698 145.843 169.76 145.736C169.886 145.518 170.038 145.325 170.193 145.136L161.316 133.29L161.316 133.29ZM163.614 130.935L173.057 143.535C173.637 143.453 174.227 143.486 174.795 143.632L184.254 132.008L180.935 119.624L164.114 128.35C164.177 129.24 164.005 130.132 163.614 130.935L163.614 130.935ZM188.619 148.299L185.294 135.887L177.45 145.524C177.757 145.992 177.976 146.514 178.094 147.061L188.619 148.299ZM155.026 162.946C155.657 162.565 156.372 162.347 157.109 162.312C157.845 162.277 158.578 162.425 159.242 162.745L169.617 149.994C169.507 149.774 169.43 149.542 169.358 149.307L136.864 145.482C136.773 145.792 136.659 146.096 136.515 146.397L155.026 162.946ZM189.524 151.682L178.159 150.343L195.076 172.915L195.204 172.881L189.524 151.682ZM156.586 171.162L144.029 186.592L169.088 179.877L159.025 170.881C158.254 171.202 157.409 171.299 156.586 171.162ZM128.23 148.959C127.655 148.627 127.161 148.21 126.746 147.738L116.701 152.95L115.838 149.734L125.353 144.799C125.318 144.574 125.295 144.348 125.284 144.121L113.978 142.791L113.071 139.406L125.446 140.862L109.686 126.776L108.651 122.909L109.874 122.581L128.047 138.826C128.545 138.512 129.088 138.275 129.656 138.123L128.073 117.704L131.268 116.848L132.921 138.183C133.348 138.313 133.759 138.49 134.146 138.711C134.588 138.967 134.981 139.277 135.331 139.619L153.994 129.938C153.673 128.649 153.866 127.286 154.531 126.136C154.734 125.784 154.975 125.469 155.241 125.186L146.028 112.894L149.413 111.986L158.141 123.634C159.009 123.489 159.899 123.57 160.726 123.868C161.553 124.167 162.29 124.673 162.865 125.338L180.074 116.409L176.905 104.58L108.603 122.882L126.905 191.183L133.626 189.382L130.553 149.716C129.735 149.628 128.943 149.371 128.23 148.959ZM172.023 152.192L161.475 165.152C161.69 165.707 161.792 166.3 161.774 166.894C161.755 167.489 161.617 168.074 161.368 168.615L172.844 178.872L191.691 173.822L175.448 152.15C174.356 152.616 173.125 152.631 172.023 152.192L172.023 152.192Z" fill="#25C7B7"/>
</g>
<defs>
<filter id="filter0_d_20_2159" x="-11.0385" y="-11.061" width="325.885" height="325.885" filterUnits="userSpaceOnUse" color-interpolation-filters="sRGB">
<feFlood flood-opacity="0" result="BackgroundImageFix"/>
<feColorMatrix in="SourceAlpha" type="matrix" values="0 0 0 0 0 0 0 0 0 0 0 0 0 0 0 0 0 0 127 0" result="hardAlpha"/>
<feOffset dy="4"/>
<feGaussianBlur stdDeviation="20"/>
<feComposite in2="hardAlpha" operator="out"/>
<feColorMatrix type="matrix" values="0 0 0 0 0.0367917 0 0 0 0 0.0348958 0 0 0 0 0.0484375 0 0 0 0.1 0"/>
<feBlend mode="normal" in2="BackgroundImageFix" result="effect1_dropShadow_20_2159"/>
<feBlend mode="normal" in="SourceGraphic" in2="effect1_dropShadow_20_2159" result="shape"/>
</filter>
</defs>
</svg>
