<svg width="303" height="303" viewBox="0 0 303 303" fill="none" xmlns="http://www.w3.org/2000/svg">
<g filter="url(#filter0_d_23_1236)">
<rect x="118.945" y="24.8451" width="179" height="179" rx="31.5" transform="rotate(30 118.945 24.8451)" stroke="#2F3336"/>
<path d="M180.168 170.02C177.137 168.292 174.091 167.503 171.271 167.31C171.387 165.246 171.402 163.357 171.863 162.231C172.408 160.921 172.647 160.068 173.677 158.722C174.707 157.377 176.758 155.798 176.833 155.63C176.909 155.463 177.164 154.619 175.433 153.599C173.702 152.578 171.999 152.059 171.56 152.417C171.121 152.775 170.186 153.628 169.343 154.575C168.13 155.984 161.69 159.795 158.163 161.703C158.244 160.21 158.323 158.906 158.678 158.035C159.223 156.726 159.462 155.873 160.492 154.527C161.522 153.181 163.573 151.602 163.648 151.435C163.724 151.267 163.979 150.424 162.248 149.403C160.517 148.383 158.814 147.863 158.375 148.221C157.936 148.58 157.125 149.546 156.158 150.38C155.192 151.214 145.525 158.203 143.012 160C141.721 160.92 140.655 161.634 139.914 162.113C139.914 162.113 139.871 162.152 139.778 162.203C139.139 162.615 138.783 162.831 138.783 162.831C138.783 162.831 138.783 162.831 138.774 162.847C138.29 163.137 137.808 163.386 137.682 163.313C137.587 163.258 138.07 162.019 139.266 160.642C141.789 157.733 146.233 153.507 146.317 153.324C146.372 153.229 147.168 152.508 146.168 151.318C145.199 150.147 144.317 150.651 144.207 150.587C144.096 150.523 143.862 150.746 143.862 150.746C143.862 150.746 148.544 145.815 144.542 143.504C142.043 142.061 137.014 142.807 133.881 144.288C132.468 144.252 129.452 144.178 126.224 144.107C124.99 144.09 123.723 144.055 122.539 144.025C122.512 143.925 122.494 143.809 122.467 143.709C120.613 135.742 113.77 126.919 118.159 120.194C119.762 117.745 124.468 111.604 145.308 112.879C162.417 114.004 171.965 121.942 171.471 127.036C170.773 134.309 156.294 140.208 141.637 133.813C136.048 131.366 134.464 127.752 134.207 126.591C133.936 125.38 133.852 125.269 133.492 125.271C132.912 125.253 132.786 126.129 132.707 126.632C132.497 127.945 133.094 130.82 135.418 133.407C137.474 135.69 143.363 139.702 152.475 141.124C162.674 142.71 174.37 137.504 176.794 128.885C179.282 120.156 168.079 110.335 153.648 107.676C145.069 106.097 135.048 105.627 126.5 107.61C116.342 109.97 112.202 114.73 111.332 117.223C108.264 126.081 116.262 137.617 118.44 144C118.146 143.998 117.876 143.99 117.647 143.985C114.819 143.807 103.905 143.348 99.1412 146.777C93.7364 150.659 94.3152 156.013 95.842 157.569C100.585 162.396 108.016 162.932 113.817 160.08C119.618 157.229 122.727 150.967 122.886 147.368C122.889 147.327 122.891 147.286 122.878 147.236C123.639 147.233 124.425 147.223 125.186 147.219C126.693 147.204 128.157 147.226 129.398 147.268C128.011 148.428 126.602 149.956 124.95 152.377C122.996 155.214 121.986 159.777 122.707 162.218C123.035 163.293 123.864 163.793 124.402 164.104C126.269 165.181 128.002 164.115 129.995 162.819C132.43 161.23 134.966 159.214 134.966 159.214C134.966 159.214 129.611 165.529 133.091 167.538C134.357 168.269 136.588 167.364 137.641 166.854C137.632 166.87 137.632 166.87 137.632 166.87C137.632 166.87 137.691 166.841 137.818 166.766C138.064 166.634 138.216 166.553 138.216 166.553C138.216 166.553 138.225 166.537 138.234 166.521C139.252 165.928 141.55 164.576 145.17 162.216C149.837 159.174 155.046 155.01 155.046 155.01C155.046 155.01 154.478 156.433 153.866 158.99C153.506 160.49 153.484 162.355 153.331 164.081C152.414 164.5 151.869 164.713 151.869 164.713C151.869 164.713 151.869 164.713 151.876 164.738C151.154 165.038 150.373 165.368 149.554 165.654C146.643 166.715 143.226 167.885 142.548 168.401C141.75 169.015 141.491 169.646 141.85 170.486C142.108 171.099 142.903 171.621 143.769 172.058C145.383 172.842 146.694 173.093 147.369 173.166C148.38 173.35 149.626 173.457 150.936 173.307C153.35 173.034 155.41 171.84 156.676 169.429C157.378 168.104 157.699 166.56 157.881 165.041C158.167 164.911 158.437 164.772 158.723 164.641C163.652 162.278 168.199 159.187 168.199 159.187C168.199 159.187 167.631 160.61 167.019 163.167C166.696 164.457 166.651 166.034 166.544 167.533C162.851 168.122 159.931 169.599 158.482 170.83C155.824 173.134 155.85 174.878 157.148 176.028C157.73 176.554 158.862 176.786 159.731 176.887C160.781 177.114 162.108 177.226 163.525 177.074C165.939 176.801 168.573 176.002 169.839 173.59C170.412 172.487 170.74 171.263 170.938 170.006C173.585 170.353 176.62 171.452 179.894 173.891C186.912 179.124 185.687 184.68 184.261 186.493C182.834 188.306 180.631 188.469 179.918 188.499C179.204 188.53 178.966 188.54 178.876 188.805C178.739 189.19 179.001 189.32 179.48 189.512C180.161 189.758 184.357 190.198 186.6 186.642C189.523 182.128 188.025 174.494 180.168 170.02ZM110.777 156.068C106.706 157.346 102.633 156.365 101.632 154.627C100.558 152.762 103.51 149.11 108.241 148.003C111.121 147.325 114.466 147.083 116.639 147.009C117.131 146.998 117.852 146.992 118.728 146.971C118.876 146.972 118.957 146.977 118.957 146.977C119.129 146.97 119.302 146.964 119.474 146.958C118.222 151.72 115.055 154.721 110.777 156.068ZM136.109 154.201C134.016 155.818 129.064 160.194 128.13 159.254C127.327 158.453 129.116 154.002 132.808 150.713C134.666 149.065 137.512 147.46 138.899 146.995C141.136 146.262 142.931 146.623 142.938 147.45C142.931 148.522 137.414 153.183 136.109 154.201ZM146.975 170.049C146.501 170.029 146.08 169.955 145.977 169.768C145.903 169.641 146.318 169.543 146.318 169.543C146.318 169.543 149.369 168.605 150.642 168.117C151.38 167.826 152.251 167.485 153.2 167.084C153.163 167.147 153.118 167.226 153.081 167.29C151.684 169.71 148.402 169.988 146.975 170.049ZM160.079 174.093C159.919 173.748 160.332 173.142 162.375 171.686C163.171 171.111 164.742 170.289 166.872 169.852C166.738 170.45 166.565 171.004 166.285 171.454C164.506 174.498 161.666 174.376 160.079 174.093Z" fill="#CD6799"/>
</g>
<defs>
<filter id="filter0_d_23_1236" x="-11.238" y="-11.8379" width="325.885" height="325.885" filterUnits="userSpaceOnUse" color-interpolation-filters="sRGB">
<feFlood flood-opacity="0" result="BackgroundImageFix"/>
<feColorMatrix in="SourceAlpha" type="matrix" values="0 0 0 0 0 0 0 0 0 0 0 0 0 0 0 0 0 0 127 0" result="hardAlpha"/>
<feOffset dy="4"/>
<feGaussianBlur stdDeviation="20"/>
<feComposite in2="hardAlpha" operator="out"/>
<feColorMatrix type="matrix" values="0 0 0 0 0.0367917 0 0 0 0 0.0348958 0 0 0 0 0.0484375 0 0 0 0.1 0"/>
<feBlend mode="normal" in2="BackgroundImageFix" result="effect1_dropShadow_23_1236"/>
<feBlend mode="normal" in="SourceGraphic" in2="effect1_dropShadow_23_1236" result="shape"/>
</filter>
</defs>
</svg>
