<svg width="303" height="303" viewBox="0 0 303 303" fill="none" xmlns="http://www.w3.org/2000/svg">
<g filter="url(#filter0_d_20_2194)">
<g clip-path="url(#clip0_20_2194)">
<path d="M133.56 84.2802L214.965 131.279L169.247 210.463L87.8431 163.465L133.56 84.2802Z" fill="#2E001E"/>
<path d="M131.996 78.4437L82.0065 165.028L170.811 216.3L220.801 129.715L131.996 78.4437ZM133.56 84.2802L214.965 131.279L169.248 210.463L87.843 163.465L133.56 84.2802Z" fill="#FF2BC2"/>
<path d="M175.491 152.053C175.085 151.473 174.446 150.956 173.558 150.444C168.896 147.752 163.716 149.546 160.276 155.504C156.345 162.312 157.947 166.888 162.091 169.28C162.979 169.793 164.005 170.237 164.879 170.347L175.454 152.031L175.491 152.053ZM153.445 151.954C158.423 143.333 167.861 139.803 176.963 145.058C177.74 145.507 178.148 145.742 178.845 146.243L184.399 136.623C184.527 136.401 184.798 136.36 184.983 136.466L190.94 139.906C191.236 140.077 191.246 140.231 191.139 140.416L171.613 174.235C171.037 175.234 170.31 176.492 169.705 177.968C169.555 178.227 169.534 178.264 169.248 178.247C165.285 177.933 161.644 176.719 158.536 174.924C150.507 170.289 147.634 162.019 153.445 151.954ZM144.288 138.675L143.049 164.749C143.063 165.152 142.781 165.384 142.485 165.213L136.046 161.496C135.639 161.261 135.518 161.043 135.547 160.566C135.999 154.315 136.52 147.857 137.075 141.171L137.001 141.128C131.918 144.805 126.357 148.797 121.169 152.314C120.813 152.503 120.564 152.508 120.268 152.337L114.125 148.79C113.755 148.577 113.889 148.259 114.203 148.144L135.599 134.498L136.988 109.447C136.937 109.023 137.309 108.892 137.568 109.042L143.932 112.716C144.302 112.93 144.444 113.111 144.363 113.508C143.853 119.775 143.422 125.99 142.78 132.23L142.854 132.272C147.82 128.627 153.029 125.073 158.085 121.529C158.441 121.34 158.659 121.219 159.029 121.433L164.986 124.872C165.282 125.043 165.265 125.329 164.888 125.555L144.288 138.675Z" fill="#FF2BC2"/>
</g>
<rect x="118.645" y="25.1126" width="179" height="179" rx="31.5" transform="rotate(30 118.645 25.1126)" stroke="#D9D9D9"/>
</g>
<defs>
<filter id="filter0_d_20_2194" x="-11.5385" y="-11.5704" width="325.885" height="325.885" filterUnits="userSpaceOnUse" color-interpolation-filters="sRGB">
<feFlood flood-opacity="0" result="BackgroundImageFix"/>
<feColorMatrix in="SourceAlpha" type="matrix" values="0 0 0 0 0 0 0 0 0 0 0 0 0 0 0 0 0 0 127 0" result="hardAlpha"/>
<feOffset dy="4"/>
<feGaussianBlur stdDeviation="20"/>
<feComposite in2="hardAlpha" operator="out"/>
<feColorMatrix type="matrix" values="0 0 0 0 0.0367917 0 0 0 0 0.0348958 0 0 0 0 0.0484375 0 0 0 0.1 0"/>
<feBlend mode="normal" in2="BackgroundImageFix" result="effect1_dropShadow_20_2194"/>
<feBlend mode="normal" in="SourceGraphic" in2="effect1_dropShadow_20_2194" result="shape"/>
</filter>
<clipPath id="clip0_20_2194">
<rect x="118.462" y="24.4296" width="180" height="180" rx="32" transform="rotate(30 118.462 24.4296)" fill="white"/>
</clipPath>
</defs>
</svg>
